:SAMPLES-PER-SECOND 30
:FULLY-SPECIFIED
:DEGREES
719
root  -8.03573 39.6724 9.13915 -149.896 -78.9505 148.35
RightUpLeg  0.101102 26.3532 -5.29331
RightLeg  44.6885 9.02201 9.15044
RightFoot  42.6664 -10.6636 21.3822
RightToes  -5.8209e-011 0 -3.6325e-017
Spine  -24.2724 1.68232 12.9445
Spine1  21.635 -0.971485 -3.06412
HEad  -1.84791 -7.56444 -1.13769
LeftShoulder1  7.40049 -15.5408 -32.8312
LeftArm  8.4543 15.3115 -44.329
LeftForeArm  43.2248 -71.2996 -29.5485
LeftHand  -0.246645 0.021 5.37786
RightShoulder  6.19468 13.5893 30.2729
RightArm  44.2634 18.0866 62.4673
RightForeArm  55.4919 68.4577 22.4531
RightHand  -0.24729 -0.0210522 -5.37781
LeftUpLeg  -6.65616 -4.10693 -6.95398
LeftLeg  27.258 -56.1701 -23.9488
LeftFoot  2.04158 -0.369362 3.04427
LeftToes  -7.45818e-011 -3.37383e-011 1.08613e-011
720
root  -8.07401 39.6692 9.13138 -151.091 -78.4905 149.54
RightUpLeg  0.0152452 26.4742 -5.48735
RightLeg  44.7308 9.06041 9.20321
RightFoot  42.6463 -10.6251 21.3171
RightToes  -5.8209e-011 0 -3.6325e-017
Spine  -24.2456 1.55648 12.7879
Spine1  21.8677 -1.08593 -2.98677
HEad  -1.81631 -7.40472 -1.14685
LeftShoulder1  7.35378 -15.487 -32.6961
LeftArm  9.11633 15.1507 -44.4321
LeftForeArm  42.1948 -70.9966 -29.0865
LeftHand  -0.246645 0.021 5.37786
RightShoulder  6.20079 13.5796 30.3305
RightArm  44.0781 17.8715 62.2444
RightForeArm  55.2196 68.4158 22.4331
RightHand  -0.24729 -0.0210522 -5.37781
LeftUpLeg  -6.57147 -4.28867 -7.01678
LeftLeg  26.8067 -55.4673 -23.3521
LeftFoot  1.85251 -0.381185 3.21157
LeftToes  -7.45818e-011 -3.37383e-011 1.08613e-011
721
root  -8.1084 39.6632 9.12621 -152.624 -77.963 151.074
RightUpLeg  -0.110856 26.5724 -5.67253
RightLeg  44.7998 9.06623 9.23136
RightFoot  42.6135 -10.5321 21.153
RightToes  -5.8209e-011 0 -3.6325e-017
Spine  -24.1434 1.4382 12.4722
Spine1  22.065 -1.2746 -2.61522
HEad  -1.76696 -7.32808 -1.15904
LeftShoulder1  7.37766 -15.4621 -32.8728
LeftArm  9.66058 14.9709 -44.4045
LeftForeArm  41.0824 -70.6695 -28.6086
LeftHand  -0.246645 0.021 5.37786
RightShoulder  6.17712 13.5531 30.2469
RightArm  43.9178 17.686 61.9979
RightForeArm  55.0031 68.3579 22.3829
RightHand  -0.24729 -0.0210522 -5.37781
LeftUpLeg  -6.53106 -4.24417 -6.99482
LeftLeg  26.5832 -54.8401 -23.0153
LeftFoot  1.67498 -0.394033 3.40399
LeftToes  -7.45818e-011 -3.37383e-011 1.08613e-011
722
root  -8.14246 39.6613 9.12791 -154.637 -77.3258 153.057
RightUpLeg  -0.20407 26.7283 -5.80137
RightLeg  44.8288 9.0445 9.21846
RightFoot  42.5743 -10.4016 20.9191
RightToes  -5.8209e-011 0 -3.6325e-017
Spine  -23.9255 1.37366 12.2135
Spine1  22.2186 -1.44621 -2.16499
HEad  -1.71573 -7.23977 -1.13404
LeftShoulder1  7.4367 -15.4627 -33.1821
LeftArm  10.1471 14.7634 -44.3154
LeftForeArm  39.8897 -70.3159 -28.1132
LeftHand  -0.246645 0.021 5.37786
RightShoulder  6.12861 13.499 30.0745
RightArm  43.7528 17.5144 61.7427
RightForeArm  54.7682 68.292 22.3245
RightHand  -0.24729 -0.0210522 -5.37781
LeftUpLeg  -6.45518 -4.09407 -6.90623
LeftLeg  26.3748 -54.1994 -22.6887
LeftFoot  1.48954 -0.407083 3.60674
LeftToes  -7.45818e-011 -3.37383e-011 1.08613e-011
723
root  -8.18192 39.6643 9.13524 -156.589 -76.6093 154.947
RightUpLeg  -0.262785 26.8462 -5.97447
RightLeg  44.8202 9.02669 9.19747
RightFoot  42.543 -10.2556 20.6515
RightToes  -5.8209e-011 0 -3.6325e-017
Spine  -23.641 1.33096 12.0847
Spine1  22.3127 -1.54603 -1.87564
HEad  -1.579 -7.11458 -1.05703
LeftShoulder1  7.44159 -15.4392 -33.2565
LeftArm  10.7532 14.5689 -44.3315
LeftForeArm  38.6919 -69.9732 -27.662
LeftHand  -0.246645 0.021 5.37786
RightShoulder  6.11598 13.4763 30.048
RightArm  43.4947 17.2737 61.4036
RightForeArm  54.4831 68.2695 22.3335
RightHand  -0.24729 -0.0210522 -5.37781
LeftUpLeg  -6.29389 -4.11098 -6.87047
LeftLeg  25.9213 -53.4062 -22.0704
LeftFoot  1.27479 -0.418266 3.78561
LeftToes  -7.45818e-011 -3.37383e-011 1.08613e-011
724
root  -8.22744 39.668 9.14163 -158.195 -75.8382 156.515
RightUpLeg  -0.387662 26.8867 -6.24786
RightLeg  44.8454 8.98624 9.16389
RightFoot  42.541 -10.0874 20.3286
RightToes  -5.8209e-011 0 -3.6325e-017
Spine  -23.4664 1.26507 11.9751
Spine1  22.4658 -1.62324 -1.72549
HEad  -1.35904 -6.9131 -0.974098
LeftShoulder1  7.37979 -15.373 -33.0682
LeftArm  11.4778 14.4018 -44.4733
LeftForeArm  37.5802 -69.6659 -27.2807
LeftHand  -0.246645 0.021 5.37786
RightShoulder  6.16019 13.5286 30.1991
RightArm  43.132 16.9844 61.0113
RightForeArm  54.1171 68.2633 22.3766
RightHand  -0.24729 -0.0210522 -5.37781
LeftUpLeg  -6.11743 -4.22958 -6.89735
LeftLeg  25.3159 -52.5358 -21.287
LeftFoot  1.04409 -0.426061 3.91488
LeftToes  -7.45818e-011 -3.37383e-011 1.08613e-011
725
root  -8.27329 39.6694 9.14574 -159.742 -75.0052 158.065
RightUpLeg  -0.603913 26.9485 -6.51874
RightLeg  44.924 8.87407 9.07328
RightFoot  42.5689 -9.90521 19.9662
RightToes  -5.8209e-011 0 -3.6325e-017
Spine  -23.4464 1.17437 11.8077
Spine1  22.7774 -1.75072 -1.54839
HEad  -1.16974 -6.5165 -0.967785
LeftShoulder1  7.32272 -15.3008 -32.9161
LeftArm  12.1492 14.2254 -44.5965
LeftForeArm  36.6491 -69.4056 -26.967
LeftHand  -0.246645 0.021 5.37786
RightShoulder  6.19911 13.5894 30.2992
RightArm  42.7396 16.7503 60.7337
RightForeArm  53.6985 68.193 22.3389
RightHand  -0.24729 -0.0210522 -5.37781
LeftUpLeg  -5.99763 -4.11873 -6.86307
LeftLeg  24.8756 -51.8173 -20.7246
LeftFoot  0.831207 -0.432104 4.01807
LeftToes  -7.45818e-011 -3.37383e-011 1.08613e-011
726
root  -8.31572 39.6691 9.15305 -161.394 -74.1268 159.695
RightUpLeg  -0.790151 27.0543 -6.71193
RightLeg  44.9975 8.6834 8.89922
RightFoot  42.5789 -9.75996 19.6824
RightToes  -5.8209e-011 0 -3.6325e-017
Spine  -23.4015 1.0671 11.5792
Spine1  23.1462 -1.93098 -1.27394
HEad  -1.0714 -5.90399 -1.0264
LeftShoulder1  7.30519 -15.2593 -32.9092
LeftArm  12.715 13.9989 -44.6558
LeftForeArm  35.8601 -69.162 -26.6685
LeftHand  -0.246645 0.021 5.37786
RightShoulder  6.19293 13.5809 30.2808
RightArm  42.3434 16.5806 60.5468
RightForeArm  53.2828 68.0788 22.2408
RightHand  -0.24729 -0.0210522 -5.37781
LeftUpLeg  -5.8822 -3.72371 -6.73461
LeftLeg  24.6685 -51.2935 -20.4595
LeftFoot  0.644201 -0.440215 4.1525
LeftToes  -7.45818e-011 -3.37383e-011 1.08613e-011
727
root  -8.35771 39.6681 9.16623 -162.886 -73.2435 161.085
RightUpLeg  -0.85609 27.1266 -6.89708
RightLeg  45.0373 8.42671 8.64497
RightFoot  42.5163 -9.6697 19.5334
RightToes  -5.8209e-011 0 -3.6325e-017
Spine  -23.2023 0.933989 11.2603
Spine1  23.4039 -2.11974 -0.934167
HEad  -1.00099 -5.28974 -1.02543
LeftShoulder1  7.29839 -15.2555 -32.8809
LeftArm  13.3106 13.7151 -44.7485
LeftForeArm  34.9649 -68.8491 -26.2778
LeftHand  -0.246645 0.021 5.37786
RightShoulder  6.1937 13.5473 30.3585
RightArm  41.9106 16.3872 60.1945
RightForeArm  52.9436 68.0183 22.2061
RightHand  -0.24729 -0.0210522 -5.37781
LeftUpLeg  -5.6808 -3.35899 -6.64075
LeftLeg  24.4429 -50.7517 -20.1811
LeftFoot  0.456444 -0.449729 4.32666
LeftToes  -7.45818e-011 -3.37383e-011 1.08613e-011
728
root  -8.40223 39.6675 9.18285 -164.059 -72.359 162.127
RightUpLeg  -0.883743 27.1924 -7.12404
RightLeg  45.0823 8.11373 8.33212
RightFoot  42.4048 -9.56415 19.3736
RightToes  -5.8209e-011 0 -3.6325e-017
Spine  -22.9553 0.768652 10.8495
Spine1  23.5534 -2.31725 -0.55461
HEad  -0.869959 -4.86877 -0.92252
LeftShoulder1  7.2878 -15.2698 -32.7948
LeftArm  13.9947 13.3943 -44.8942
LeftForeArm  33.7577 -68.4177 -25.7573
LeftHand  -0.246645 0.021 5.37786
RightShoulder  6.24808 13.5815 30.6075
RightArm  41.4963 16.1846 59.6424
RightForeArm  52.6933 67.9898 22.2026
RightHand  -0.24729 -0.0210522 -5.37781
LeftUpLeg  -5.42501 -3.22216 -6.65304
LeftLeg  24.0352 -50.0357 -19.6778
LeftFoot  0.244253 -0.45586 4.48824
LeftToes  -7.45818e-011 -3.37383e-011 1.08613e-011
729
root  -8.44683 39.6682 9.20202 -165.143 -71.4368 163.143
RightUpLeg  -1.00843 27.3507 -7.33083
RightLeg  45.151 7.78205 8.00472
RightFoot  42.3385 -9.37481 19.0328
RightToes  -5.8209e-011 0 -3.6325e-017
Spine  -22.8184 0.585991 10.4506
Spine1  23.7418 -2.5646 -0.157574
HEad  -0.639477 -4.54132 -0.847189
LeftShoulder1  7.28503 -15.2614 -32.7976
LeftArm  14.6234 13.0633 -45.0212
LeftForeArm  32.3581 -67.9436 -25.2247
LeftHand  -0.246645 0.021 5.37786
RightShoulder  6.30962 13.6679 30.7836
RightArm  41.2333 16.1254 59.2171
RightForeArm  52.3135 67.8487 22.0659
RightHand  -0.24729 -0.0210522 -5.37781
LeftUpLeg  -5.22907 -3.13275 -6.6665
LeftLeg  23.5877 -49.2438 -19.1053
LeftFoot  0.0204615 -0.459664 4.62259
LeftToes  -7.45818e-011 -3.37383e-011 1.08613e-011
730
root  -8.4895 39.6712 9.22598 -166.308 -70.4602 164.304
RightUpLeg  -1.22879 27.5564 -7.50226
RightLeg  45.2058 7.47075 7.69278
RightFoot  42.3568 -9.13449 18.5596
RightToes  -5.8209e-011 0 -3.6325e-017
Spine  -22.7786 0.418692 10.1404
Spine1  24.0357 -2.84018 0.204405
HEad  -0.309514 -4.13651 -0.881835
LeftShoulder1  7.27528 -15.2064 -32.86
LeftArm  15.0901 12.7345 -45.161
LeftForeArm  31.0746 -67.5407 -24.8087
LeftHand  -0.246645 0.021 5.37786
RightShoulder  6.31374 13.7105 30.7149
RightArm  41.1257 16.2652 59.1111
RightForeArm  51.5824 67.5614 21.7873
RightHand  -0.24729 -0.0210522 -5.37781
LeftUpLeg  -5.10612 -2.84319 -6.59274
LeftLeg  23.256 -48.5589 -18.6698
LeftFoot  -0.178455 -0.466347 4.77986
LeftToes  -7.45818e-011 -3.37383e-011 1.08613e-011
731
root  -8.53371 39.6753 9.25563 -167.41 -69.4574 165.38
RightUpLeg  -1.42738 27.687 -7.71436
RightLeg  45.2261 7.14621 7.356
RightFoot  42.3874 -8.91328 18.1187
RightToes  -5.8209e-011 0 -3.6325e-017
Spine  -22.7127 0.300614 9.87013
Spine1  24.3447 -3.04953 0.500761
HEad  0.0669279 -3.79033 -0.915515
LeftShoulder1  7.23515 -15.1395 -32.7852
LeftArm  15.4928 12.3909 -45.4169
LeftForeArm  30.0512 -67.2139 -24.4818
LeftHand  -0.246645 0.021 5.37786
RightShoulder  6.27524 13.679 30.5563
RightArm  41.018 16.4569 59.1
RightForeArm  50.5659 67.2769 21.5592
RightHand  -0.24729 -0.0210522 -5.37781
LeftUpLeg  -4.94775 -2.36471 -6.4969
LeftLeg  22.9686 -48.0164 -18.3407
LeftFoot  -0.328538 -0.476863 4.96683
LeftToes  -7.45818e-011 -3.37383e-011 1.08613e-011
732
root  -8.58221 39.6793 9.29001 -168.35 -68.4508 166.234
RightUpLeg  -1.55196 27.7637 -7.96935
RightLeg  45.2434 6.73734 6.92776
RightFoot  42.3549 -8.70965 17.7351
RightToes  -5.8209e-011 0 -3.6325e-017
Spine  -22.56 0.243132 9.62035
Spine1  24.5658 -3.14355 0.733981
HEad  0.360461 -3.79402 -0.84672
LeftShoulder1  7.186 -15.1083 -32.5866
LeftArm  15.9098 12.0229 -45.7471
LeftForeArm  29.2382 -66.8928 -24.1424
LeftHand  -0.246645 0.021 5.37786
RightShoulder  6.25176 13.6329 30.5173
RightArm  40.8238 16.5692 58.9413
RightForeArm  49.5778 67.1134 21.4869
RightHand  -0.24729 -0.0210522 -5.37781
LeftUpLeg  -4.69982 -1.84258 -6.44178
LeftLeg  22.6168 -47.5335 -18.0072
LeftFoot  -0.43822 -0.484504 5.11335
LeftToes  -7.45818e-011 -3.37383e-011 1.08613e-011
733
root  -8.63161 39.6828 9.32819 -169.276 -67.403 167.049
RightUpLeg  -1.6699 27.8624 -8.1966
RightLeg  45.2919 6.24861 6.42005
RightFoot  42.27 -8.48281 17.324
RightToes  -5.8209e-011 0 -3.6325e-017
Spine  -22.3219 0.224185 9.482
Spine1  24.6977 -3.16322 0.866774
HEad  0.449944 -4.13618 -0.749036
LeftShoulder1  7.16124 -15.0992 -32.4724
LeftArm  16.1983 11.6975 -45.9956
LeftForeArm  28.6262 -66.5976 -23.8196
LeftHand  -0.246645 0.021 5.37786
RightShoulder  6.26562 13.6283 30.6095
RightArm  40.6189 16.6496 58.7138
RightForeArm  48.8631 67.0221 21.4699
RightHand  -0.24729 -0.0210522 -5.37781
LeftUpLeg  -4.42476 -1.29658 -6.37452
LeftLeg  22.2609 -47.0471 -17.6894
LeftFoot  -0.540896 -0.488282 5.20294
LeftToes  -7.45818e-011 -3.37383e-011 1.08613e-011
